<svg xmlns="http://www.w3.org/2000/svg" viewBox="0 0 175.08 151.88"><defs><style>.cls-1{fill:#f9e70d;}.cls-2{fill:#fff;}</style></defs><title>Ресурс 1</title><g id="Слой_2" data-name="Слой 2"><g id="Слой_1-2" data-name="Слой 1"><path class="cls-1" d="M133.8,118.69a13.2,13.2,0,0,1-10.08-4.37,1.5,1.5,0,0,1,2.25-2,10.25,10.25,0,0,0,7.83,3.35h.11a14.06,14.06,0,0,0,9.14-3.65c5.37-4.74,6.44-12.33,2.4-16.91a1.49,1.49,0,0,1,2.24-2c5.15,5.82,3.95,15.3-2.65,21.14a17,17,0,0,1-11.11,4.4Z"/><path class="cls-1" d="M114.17,99.49H65.26a1.5,1.5,0,0,1,0-3h48.39l23.72-18.84-.15-66.15a1.5,1.5,0,0,1,1.5-1.5h0a1.5,1.5,0,0,1,1.5,1.5l.16,66.86a1.5,1.5,0,0,1-.57,1.18L115.1,99.17A1.48,1.48,0,0,1,114.17,99.49Z"/><path class="cls-1" d="M156,3H121.36a1.5,1.5,0,0,1,0-3H156a1.5,1.5,0,0,1,0,3Z"/><path class="cls-2" d="M15.73,134.92a1,1,0,0,1,.25.73v15.19a1,1,0,0,1-.24.7.84.84,0,0,1-.67.26.78.78,0,0,1-.65-.26,1.1,1.1,0,0,1-.21-.7V138.58L9,148.56a1,1,0,0,1-1,.7,1.09,1.09,0,0,1-1-.7L1.8,138.7v12.14a1.05,1.05,0,0,1-.23.7.8.8,0,0,1-.66.26.84.84,0,0,1-.67-.26,1,1,0,0,1-.24-.7V135.65a1,1,0,0,1,.26-.73,1,1,0,0,1,.72-.28,1.09,1.09,0,0,1,1,.7L8,147l6-11.69a1.37,1.37,0,0,1,.42-.54,1,1,0,0,1,.54-.16A.93.93,0,0,1,15.73,134.92Z"/><path class="cls-2" d="M22.93,150.82a6.85,6.85,0,0,1-2.67-3,10.37,10.37,0,0,1-.94-4.58,10.79,10.79,0,0,1,.92-4.62,6.74,6.74,0,0,1,2.67-3A7.8,7.8,0,0,1,27,134.57a7.81,7.81,0,0,1,4.12,1.05,6.66,6.66,0,0,1,2.66,3,11.76,11.76,0,0,1,0,9.19,6.88,6.88,0,0,1-2.67,3,7.8,7.8,0,0,1-4.1,1.06A7.78,7.78,0,0,1,22.93,150.82Zm8.28-2.44a9.67,9.67,0,0,0,0-10.33,5.14,5.14,0,0,0-4.2-1.8,5.15,5.15,0,0,0-4.18,1.81,9.61,9.61,0,0,0,0,10.31A5.1,5.1,0,0,0,27,150.2,5.13,5.13,0,0,0,31.21,148.38Z"/><path class="cls-2" d="M51,134.64a1,1,0,0,1,.74.27,1,1,0,0,1,.26.74v15.17a.9.9,0,0,1-1,1,.94.94,0,0,1-.7-.26,1,1,0,0,1-.26-.72V137.74l-9.86,13.42a1.86,1.86,0,0,1-.53.5,1.27,1.27,0,0,1-.63.14,1,1,0,0,1-.72-.27,1.05,1.05,0,0,1-.26-.73V135.63a1,1,0,0,1,.26-.72.94.94,0,0,1,.7-.27,1,1,0,0,1,.72.27.94.94,0,0,1,.26.72v13.05l9.94-13.51A1.2,1.2,0,0,1,51,134.64Zm-8.54-2.06a3.71,3.71,0,0,1-1.66-1.85,1,1,0,0,1-.08-.36.69.69,0,0,1,.24-.53.78.78,0,0,1,1.25.27,3.16,3.16,0,0,0,5.64,0,.81.81,0,0,1,.72-.5.73.73,0,0,1,.53.23.71.71,0,0,1,.24.54,2.58,2.58,0,0,1-.1.4,3.8,3.8,0,0,1-1.66,1.79,5.64,5.64,0,0,1-5.12,0Z"/><path class="cls-2" d="M64.9,150.83a6.8,6.8,0,0,1-2.7-3,11.64,11.64,0,0,1,0-9.21,6.8,6.8,0,0,1,2.7-3,7.9,7.9,0,0,1,4.15-1.05,8.69,8.69,0,0,1,3,.52,7.3,7.3,0,0,1,2.49,1.47,1.13,1.13,0,0,1,.38.84.93.93,0,0,1-.19.59.56.56,0,0,1-.46.25,1.29,1.29,0,0,1-.69-.26,8.88,8.88,0,0,0-2.22-1.34,6.28,6.28,0,0,0-2.29-.39,5.28,5.28,0,0,0-4.29,1.81,9.63,9.63,0,0,0,0,10.32,5.25,5.25,0,0,0,4.29,1.82,6.34,6.34,0,0,0,2.28-.39,8.75,8.75,0,0,0,2.23-1.34,1.32,1.32,0,0,1,.69-.27.57.57,0,0,1,.46.24.92.92,0,0,1,.19.6,1.13,1.13,0,0,1-.38.84,7.32,7.32,0,0,1-2.49,1.48,8.93,8.93,0,0,1-3,.52A7.9,7.9,0,0,1,64.9,150.83Z"/><path class="cls-2" d="M92.13,151a.77.77,0,0,1-.27.6,1,1,0,0,1-.66.24.85.85,0,0,1-.84-.57l-1.71-3.89h-9l-1.73,3.89a.85.85,0,0,1-.84.57,1,1,0,0,1-.67-.25.76.76,0,0,1-.29-.61.85.85,0,0,1,.09-.38L83,135.29a1,1,0,0,1,.43-.5,1.23,1.23,0,0,1,.62-.17,1.2,1.2,0,0,1,.65.18,1.08,1.08,0,0,1,.43.49L92,150.56A.9.9,0,0,1,92.13,151Zm-11.8-5.25h7.6l-3.81-8.62Z"/><path class="cls-2" d="M110.41,134.92a1,1,0,0,1,.25.73v15.19a1,1,0,0,1-.24.7.84.84,0,0,1-.67.26.78.78,0,0,1-.65-.26,1.1,1.1,0,0,1-.21-.7V138.58l-5.21,10a1.06,1.06,0,0,1-1,.7,1.09,1.09,0,0,1-1-.7l-5.23-9.86v12.14a1.05,1.05,0,0,1-.23.7.8.8,0,0,1-.66.26.84.84,0,0,1-.67-.26,1,1,0,0,1-.24-.7V135.65a1,1,0,0,1,.26-.73,1,1,0,0,1,.72-.28,1.09,1.09,0,0,1,1,.7l6.1,11.69,6-11.69a1.37,1.37,0,0,1,.42-.54,1,1,0,0,1,.54-.16A.93.93,0,0,1,110.41,134.92Z"/><path class="cls-2" d="M117.61,150.82a6.93,6.93,0,0,1-2.68-3,10.52,10.52,0,0,1-.93-4.58,10.79,10.79,0,0,1,.92-4.62,6.74,6.74,0,0,1,2.67-3,8.59,8.59,0,0,1,8.23,0,6.66,6.66,0,0,1,2.66,3,11.76,11.76,0,0,1,0,9.19,6.9,6.9,0,0,1-2.68,3,8.42,8.42,0,0,1-8.18,0Zm8.28-2.44a9.67,9.67,0,0,0,0-10.33,5.78,5.78,0,0,0-8.39,0,9.61,9.61,0,0,0,0,10.31,5.72,5.72,0,0,0,8.38,0Z"/><path class="cls-2" d="M133,151.53a1.05,1.05,0,0,1-.26-.73V135.63a1,1,0,0,1,.26-.72.94.94,0,0,1,.7-.27.91.91,0,0,1,1,1v6.62h2.76l5.81-7.22a.88.88,0,0,1,.74-.39.89.89,0,0,1,.63.26.82.82,0,0,1,.26.61,1.11,1.11,0,0,1-.26.65l-5.19,6.43a4.13,4.13,0,0,1,2,1.09,12.11,12.11,0,0,1,1.7,2.48l2.35,4.18a1.27,1.27,0,0,1,.14.53.9.9,0,0,1-.27.67.94.94,0,0,1-1.5-.29l-2.64-4.68a6.3,6.3,0,0,0-1.64-2,3.7,3.7,0,0,0-2.2-.59h-2.67v6.87a1.05,1.05,0,0,1-.26.73,1,1,0,0,1-.72.27A.94.94,0,0,1,133,151.53Z"/><path class="cls-2" d="M162.38,151a.77.77,0,0,1-.27.6,1,1,0,0,1-.66.24.85.85,0,0,1-.84-.57l-1.71-3.89h-9.05l-1.72,3.89a.85.85,0,0,1-.84.57,1,1,0,0,1-.68-.25.78.78,0,0,1-.28-.61.85.85,0,0,1,.09-.38l6.87-15.27a1,1,0,0,1,.43-.5,1.23,1.23,0,0,1,.62-.17,1.2,1.2,0,0,1,.65.18,1.08,1.08,0,0,1,.43.49l6.87,15.27A.9.9,0,0,1,162.38,151Zm-11.81-5.25h7.61l-3.81-8.62Z"/><path class="cls-2" d="M167.29,151.53a1,1,0,0,1-.28-.73V136.44h-5.16a1,1,0,0,1-.67-.21.81.81,0,0,1-.24-.63.78.78,0,0,1,.24-.62,1,1,0,0,1,.67-.22h12.32a1,1,0,0,1,.67.22.78.78,0,0,1,.24.62.81.81,0,0,1-.24.63,1,1,0,0,1-.67.21H169V150.8a1,1,0,0,1-.27.73.94.94,0,0,1-.72.27A1,1,0,0,1,167.29,151.53Z"/><path class="cls-1" d="M41,119.32a22,22,0,0,1-9.8-2.71,1.5,1.5,0,0,1,1.35-2.68c3.27,1.66,8,3.3,11.94,1.77a11.83,11.83,0,0,0,7.16-7,11.13,11.13,0,0,0-1.08-9.28,1.5,1.5,0,0,1,2.58-1.53,14.12,14.12,0,0,1,1.33,11.79,14.71,14.71,0,0,1-8.9,8.8A12.45,12.45,0,0,1,41,119.32Z"/></g></g></svg>